<svg width="20" height="16" viewBox="0 0 20 16" fill="none" xmlns="http://www.w3.org/2000/svg">
<path d="M2.8916 15.4424H17.0684C18.7646 15.4424 19.749 14.458 19.749 12.5771V2.86523C19.749 0.984375 18.7559 0 16.8574 0H2.68066C0.984375 0 0 0.975586 0 2.86523V12.5771C0 14.458 0.993164 15.4424 2.8916 15.4424ZM8.88574 8.02441L2.4873 1.69629C2.61035 1.66992 2.75098 1.65234 2.90039 1.65234H16.8486C17.0068 1.65234 17.1475 1.66992 17.2793 1.70508L10.8896 8.02441C10.5205 8.38477 10.2129 8.54297 9.8877 8.54297C9.5625 8.54297 9.25488 8.37598 8.88574 8.02441ZM1.64355 2.98828L6.4248 7.69043L1.64355 12.4189V2.98828ZM13.3506 7.69043L18.1055 3.01465V12.4014L13.3506 7.69043ZM2.90039 13.7812C2.74219 13.7812 2.59277 13.7637 2.46094 13.7373L7.49707 8.74512L7.97168 9.21973C8.61328 9.84375 9.22852 10.1074 9.8877 10.1074C10.5381 10.1074 11.1621 9.84375 11.7949 9.21973L12.2783 8.74512L17.3057 13.7285C17.165 13.7637 17.0156 13.7812 16.8486 13.7812H2.90039Z" fill="#1C1C1E"/>
</svg>
