<svg width="58" height="44" viewBox="0 0 58 44" fill="none" xmlns="http://www.w3.org/2000/svg">
<path d="M56.404 9.68932V16.2716C56.404 18.5766 55.4702 20.6642 53.9595 22.1749C52.4487 23.6857 50.3611 24.6195 48.0561 24.6195V31.0608L39.417 24.6195H35.3156V20.4133C35.3156 15.8033 31.5776 12.0654 26.9677 12.0654H22.4301V9.68932C22.4301 5.07933 26.168 1.34143 30.778 1.34143H48.0561C52.6661 1.34143 56.404 5.07933 56.404 9.68932Z" fill="#8ECAC1"/>
<path d="M35.3155 24.6197V26.9958C35.3155 31.6058 31.5776 35.3437 26.9676 35.3437H18.3286L9.68957 41.7851V35.3437C7.38457 35.3437 5.29693 34.4086 3.7862 32.8978C2.27548 31.3871 1.34167 29.3008 1.34167 26.9958V20.4136C1.34167 15.8036 5.07958 12.0657 9.68957 12.0657H22.4301V16.2718C22.4301 20.8818 26.168 24.6197 30.778 24.6197H35.3155Z" fill="#FF7124"/>
<path d="M35.3156 20.4136V24.6197H30.778C26.168 24.6197 22.4301 20.8818 22.4301 16.2718V12.0657H26.9677C31.5776 12.0657 35.3156 15.8036 35.3156 20.4136Z" fill="#F2D59F"/>
<path d="M48.0564 32.4028C47.7726 32.4028 47.4904 32.3127 47.2542 32.1367L38.972 25.9615H30.778C25.4352 25.9615 21.0884 21.6148 21.0884 16.2718V9.68957C21.0884 4.34676 25.4351 0 30.778 0H48.0561C53.3989 0 57.7457 4.34662 57.7457 9.68957V16.2718C57.7457 18.8607 56.7379 21.2942 54.9083 23.1239C53.3985 24.6337 51.4776 25.5837 49.3979 25.87V31.0611C49.3979 31.5685 49.1114 32.0326 48.6578 32.2603C48.4676 32.3558 48.2615 32.4028 48.0564 32.4028ZM30.778 2.68335C26.9148 2.68335 23.7718 5.82635 23.7718 9.68957V16.2718C23.7718 20.1352 26.9148 23.2782 30.778 23.2782H39.417C39.706 23.2782 39.9874 23.3714 40.2191 23.5442L46.7145 28.3873V24.6199C46.7145 23.8788 47.3153 23.2782 48.0562 23.2782C49.9283 23.2782 51.6879 22.5495 53.0109 21.2265C54.3338 19.9036 55.0624 18.1439 55.0624 16.2718V9.68957C55.0624 5.82635 51.9194 2.68335 48.0562 2.68335H30.778Z" fill="#5E2A41"/>
<path d="M9.68944 43.1266C9.48429 43.1266 9.27808 43.0796 9.08796 42.984C8.63434 42.7565 8.34789 42.2924 8.34789 41.7848V36.5936C6.26857 36.3073 4.34796 35.3569 2.83764 33.8466C1.00773 32.0165 0 29.5835 0 26.9957V20.4134C0 15.0706 4.34662 10.7239 9.68957 10.7239H26.9676C32.3105 10.7239 36.6572 15.0705 36.6572 20.4134V26.9958C36.6572 32.3386 32.3106 36.6854 26.9676 36.6854H18.7738L10.4916 42.8606C10.2554 43.0366 9.9732 43.1266 9.68944 43.1266ZM9.68957 13.4072C5.82635 13.4072 2.68335 16.5502 2.68335 20.4134V26.9958C2.68335 28.8669 3.41201 30.6261 4.7349 31.9493C6.05873 33.273 7.81834 34.0021 9.68957 34.0021C10.4304 34.0021 11.0312 34.6029 11.0312 35.3437V39.1111L17.5267 34.2681C17.7584 34.0953 18.0396 34.0021 18.3287 34.0021H26.9676C30.8309 34.0021 33.9739 30.859 33.9739 26.9958V20.4134C33.9739 16.5502 30.8309 13.4072 26.9676 13.4072H9.68957Z" fill="#5E2A41"/>
</svg>
