<svg width="46" height="46" viewBox="0 0 46 46" fill="none" xmlns="http://www.w3.org/2000/svg">
<path d="M44.3919 5.9047C45.0465 6.55935 45.0465 7.62064 44.3919 8.27416L40.6383 12.0278L37.3047 8.69533L33.9723 5.36177L37.7259 1.60817C38.3794 0.953526 39.4407 0.953526 40.0953 1.60817L44.3919 5.9047Z" fill="#F2D59F"/>
<path d="M40.6383 12.0277L10.3838 42.2822L7.05139 38.9498L37.3047 8.69531L40.6383 12.0277Z" fill="#8ECAC1"/>
<path d="M33.9723 5.36182L37.3047 8.69537L7.05139 38.9498H7.05027L3.71783 35.6163L33.9723 5.36182Z" fill="#FF7124"/>
<path d="M10.3838 42.2822L3.64297 44.1746L1.82538 42.3571L3.71782 35.6162L7.05026 38.9498H7.05137L10.3838 42.2822Z" fill="#E6B263"/>
<path d="M3.64299 44.1748L1.11713 44.883L1.82539 42.3572L3.64299 44.1748Z" fill="black"/>
<path d="M3.64241 45.2921C3.15422 45.2921 2.70591 44.9697 2.56738 44.4767C2.4006 43.8827 2.74702 43.2659 3.34101 43.0992L10.0818 41.2067C10.6758 41.0398 11.2926 41.3862 11.4594 41.9803C11.6262 42.5743 11.2798 43.1911 10.6858 43.3579L3.94493 45.2503C3.84406 45.2786 3.74228 45.2921 3.64241 45.2921Z" fill="#5E2A41"/>
<path d="M1.82605 43.4746C1.72606 43.4746 1.6244 43.4611 1.52352 43.4327C0.929538 43.266 0.583224 42.6492 0.749902 42.0552L2.64234 35.3144C2.80913 34.7204 3.42624 34.3744 4.01989 34.5407C4.61388 34.7075 4.96019 35.3243 4.79351 35.9183L2.90107 42.6591C2.76255 43.1521 2.31413 43.4746 1.82605 43.4746Z" fill="#5E2A41"/>
<path d="M7.05136 40.0669C6.76548 40.0669 6.47961 39.9579 6.26143 39.7397C5.82518 39.3034 5.82507 38.5961 6.26143 38.1598L36.5148 7.90536C36.9511 7.46912 37.6583 7.46901 38.0948 7.90525C38.531 8.3415 38.531 9.04887 38.0948 9.48512L7.8414 39.7396C7.62323 39.9579 7.33735 40.0669 7.05136 40.0669Z" fill="#5E2A41"/>
<path d="M10.3838 43.3993C10.0876 43.3993 9.80336 43.2816 9.5939 43.0721L6.29095 39.7692C6.28056 39.7596 6.27028 39.7497 6.26023 39.7396L2.92779 36.406C2.49166 35.9698 2.49166 35.2625 2.92791 34.8263L33.1824 4.57181C33.6187 4.13557 34.3259 4.13557 34.7623 4.57181C35.1986 5.00806 35.1986 5.71543 34.7623 6.15179L5.2977 35.6164L7.81105 38.1306C7.82133 38.1402 7.8316 38.1499 7.84155 38.1599L10.3839 40.7024L39.8485 11.2379C40.2848 10.8017 40.992 10.8017 41.4283 11.2379C41.8646 11.6742 41.8646 12.3815 41.4283 12.8179L11.1739 43.0724C10.9643 43.2817 10.6801 43.3993 10.3838 43.3993Z" fill="#5E2A41"/>
<path d="M40.6382 13.1449C40.3524 13.1449 40.0666 13.0358 39.8484 12.8178L33.1822 6.15155C32.7461 5.7153 32.7462 5.00804 33.1823 4.57179L36.936 0.818195C37.4624 0.290904 38.1638 0 38.9101 0C39.6563 0 40.3576 0.290569 40.8852 0.818195L45.1819 5.11484C45.7095 5.64246 46 6.34381 46 7.08983C46 7.8362 45.7092 8.53765 45.1812 9.06472L41.4282 12.8176C41.21 13.0357 40.924 13.1449 40.6382 13.1449ZM35.552 5.36195L40.6381 10.4481L43.6019 7.4843C43.7445 7.34197 43.7657 7.17619 43.7657 7.08995C43.7657 7.00359 43.7443 6.83725 43.6019 6.6947L39.3054 2.39817C39.1629 2.25573 38.9966 2.2344 38.9101 2.2344C38.8239 2.2344 38.6581 2.25562 38.5166 2.3975L35.552 5.36195Z" fill="#5E2A41"/>
<path d="M1.11722 46.0001C0.824979 46.0001 0.539661 45.8853 0.32718 45.6729C0.04175 45.3874 -0.0675066 44.97 0.0415265 44.5814L0.749795 42.0555C0.856929 41.6734 1.15867 41.3768 1.54252 41.2763C1.92648 41.1761 2.33469 41.2866 2.61542 41.5671L4.43301 43.3847C4.71353 43.6653 4.82424 44.0736 4.72381 44.4576C4.62326 44.8414 4.32678 45.1432 3.9446 45.2503L1.41874 45.9586C1.3192 45.9866 1.21788 46.0001 1.11722 46.0001Z" fill="#5E2A41"/>
</svg>
