<svg width="34" height="45" viewBox="0 0 34 45" fill="none" xmlns="http://www.w3.org/2000/svg">
<path d="M32.5926 10.3626V42.4111C32.5926 43.2985 31.8729 44.0193 30.9844 44.0193H2.58879C1.70032 44.0193 0.98053 43.2985 0.98053 42.4111V2.58897C0.98053 1.70149 1.70032 0.980713 2.58879 0.980713H23.2108V8.7543C23.2108 9.64276 23.9306 10.3626 24.8191 10.3626H32.5926ZM15.0185 39.5329V29.9774H5.46306V39.5329H15.0185ZM15.0185 24.9163V15.3609H5.46306V24.9163H15.0185Z" fill="#F2D59F"/>
<path d="M32.5927 10.3626H24.8191C23.9306 10.3626 23.2108 9.64276 23.2108 8.7543V0.980713L32.5927 10.3626Z" fill="#E6B263"/>
<path d="M15.0185 29.9775H5.46307V39.533H15.0185V29.9775Z" fill="#8ECAC1"/>
<path d="M15.0185 15.3608H5.46307V24.9163H15.0185V15.3608Z" fill="#8ECAC1"/>
<path d="M30.9845 45H2.58881C1.16128 45 0 43.8386 0 42.4111V2.58891C0 1.16138 1.16138 0 2.58881 0H23.2108C23.4709 0 23.7203 0.10336 23.9042 0.287231L33.2861 9.66917C33.47 9.85314 33.5733 10.1025 33.5733 10.3626V42.4111C33.5733 43.8386 32.4119 45 30.9845 45ZM2.58881 1.96129C2.24284 1.96129 1.96129 2.24284 1.96129 2.58891V42.411C1.96129 42.7571 2.24284 43.0386 2.58881 43.0386H30.9845C31.3305 43.0386 31.612 42.7571 31.612 42.411V10.7688L22.8046 1.96129H2.58881Z" fill="#5E2A41"/>
<path d="M32.5927 11.3432H24.8191C23.3914 11.3432 22.2302 10.1819 22.2302 8.75433V0.980646C22.2302 0.439035 22.6693 0 23.2108 0C23.7523 0 24.1915 0.439035 24.1915 0.980646V8.75433C24.1915 9.1004 24.473 9.38194 24.8191 9.38194H32.5927C33.1342 9.38194 33.5733 9.82108 33.5733 10.3626C33.5733 10.9041 33.1342 11.3432 32.5927 11.3432Z" fill="#5E2A41"/>
<path d="M28.1101 18.7303H18.5381C17.9966 18.7303 17.5575 18.2912 17.5575 17.7497C17.5575 17.2081 17.9966 16.769 18.5381 16.769H28.1101C28.6516 16.769 29.0908 17.2081 29.0908 17.7497C29.0908 18.2912 28.6517 18.7303 28.1101 18.7303Z" fill="#5E2A41"/>
<path d="M22.5401 23.5082H18.5381C17.9966 23.5082 17.5575 23.069 17.5575 22.5275C17.5575 21.9859 17.9966 21.5469 18.5381 21.5469H22.5401C23.0817 21.5469 23.5207 21.9859 23.5207 22.5275C23.5207 23.069 23.0817 23.5082 22.5401 23.5082Z" fill="#5E2A41"/>
<path d="M9.82007 22.3813H9.81987C9.55971 22.3812 9.31013 22.2778 9.12626 22.0936L7.44543 20.4108C7.06269 20.0277 7.06308 19.4067 7.44632 19.024C7.82955 18.6411 8.4504 18.6416 8.83315 19.0249L9.82036 20.0133L11.6488 18.1842C12.0316 17.801 12.6527 17.8009 13.0356 18.1839C13.4186 18.5667 13.4187 19.1876 13.0359 19.5707L10.5137 22.0939C10.3298 22.278 10.0802 22.3813 9.82007 22.3813Z" fill="#5E2A41"/>
<path d="M15.0185 25.897H5.46319C4.92158 25.897 4.48254 25.4579 4.48254 24.9163V15.361C4.48254 14.8195 4.92158 14.3804 5.46319 14.3804H15.0185C15.5601 14.3804 15.9992 14.8195 15.9992 15.361V24.9163C15.9992 25.4579 15.5601 25.897 15.0185 25.897ZM6.44384 23.9357H14.0379V16.3417H6.44384V23.9357Z" fill="#5E2A41"/>
<path d="M28.1101 33.347H18.5381C17.9966 33.347 17.5575 32.9079 17.5575 32.3664C17.5575 31.8248 17.9966 31.3857 18.5381 31.3857H28.1101C28.6516 31.3857 29.0908 31.8248 29.0908 32.3664C29.0908 32.9079 28.6517 33.347 28.1101 33.347Z" fill="#5E2A41"/>
<path d="M22.5401 38.1246H18.5381C17.9966 38.1246 17.5575 37.6855 17.5575 37.144C17.5575 36.6024 17.9966 36.1633 18.5381 36.1633H22.5401C23.0817 36.1633 23.5207 36.6024 23.5207 37.144C23.5207 37.6855 23.0817 38.1246 22.5401 38.1246Z" fill="#5E2A41"/>
<path d="M15.0185 40.5138H5.46319C4.92158 40.5138 4.48254 40.0746 4.48254 39.5331V29.9777C4.48254 29.4362 4.92158 28.9971 5.46319 28.9971H15.0185C15.5601 28.9971 15.9992 29.4362 15.9992 29.9777V39.5331C15.9992 40.0746 15.5601 40.5138 15.0185 40.5138ZM6.44384 38.5525H14.0379V30.9584H6.44384V38.5525Z" fill="#5E2A41"/>
</svg>
