<svg width="99" height="39" viewBox="0 0 99 39" fill="none" xmlns="http://www.w3.org/2000/svg">
<path d="M8.47306 7.584L10.8491 1.2H15.8891L11.0411 12.576C10.2251 14.496 9.16106 15.904 7.84906 16.8C6.53706 17.68 4.84906 18.08 2.78506 18V13.536C4.24106 13.648 5.34506 13.368 6.09706 12.696L0.529063 1.2H5.56906L8.47306 7.584ZM25.7384 8.184V1.2H30.5384V18H25.7384V12.768C24.8264 13.024 23.8744 13.152 22.8824 13.152C21.0104 13.152 19.5384 12.632 18.4664 11.592C17.3944 10.536 16.8584 9.072 16.8584 7.2V1.2H21.6584V6.864C21.6584 7.376 21.8184 7.776 22.1384 8.064C22.4744 8.352 22.9144 8.496 23.4584 8.496C24.2584 8.496 25.0184 8.392 25.7384 8.184ZM46.8622 18H42.0622V10.32L36.7822 18H32.9422V1.2H37.7422V8.88L43.0222 1.2H46.8622V18ZM61.9747 1.2H66.7747V18H61.9747V9.816L58.2307 16.104H57.7987L54.0547 9.816V18H49.2547V1.2H54.0547L58.0147 8.04L61.9747 1.2ZM77.3606 18.384C74.8166 18.384 72.7206 17.544 71.0726 15.864C69.4086 14.168 68.5766 12.08 68.5766 9.6C68.5766 7.12 69.4086 5.032 71.0726 3.336C72.7206 1.656 74.8166 0.816 77.3606 0.816C78.8966 0.816 80.3206 1.184 81.6326 1.92C82.9606 2.656 83.9926 3.648 84.7286 4.896L80.5526 7.296C80.2806 6.752 79.8566 6.32 79.2806 6C78.7046 5.68 78.0646 5.52 77.3606 5.52C76.1926 5.52 75.2326 5.904 74.4806 6.672C73.7446 7.424 73.3766 8.4 73.3766 9.6C73.3766 10.8 73.7446 11.776 74.4806 12.528C75.2326 13.296 76.1926 13.68 77.3606 13.68C78.0806 13.68 78.7206 13.52 79.2806 13.2C79.8566 12.88 80.2806 12.44 80.5526 11.88L84.7286 14.28C83.9926 15.544 82.9606 16.544 81.6326 17.28C80.3206 18.016 78.8966 18.384 77.3606 18.384ZM91.7966 1.176H98.5166V17.976H93.7166V12.696H93.1166L89.9966 17.976H84.7166L88.4366 11.928C87.4926 11.448 86.7566 10.792 86.2286 9.96C85.7006 9.112 85.4366 8.152 85.4366 7.08C85.4366 5.304 86.0366 3.88 87.2366 2.808C88.4526 1.72 89.9726 1.176 91.7966 1.176ZM93.7166 5.592H91.8926C91.3806 5.592 90.9726 5.736 90.6686 6.024C90.3806 6.296 90.2366 6.68 90.2366 7.176C90.2366 7.672 90.3806 8.056 90.6686 8.328C90.9726 8.6 91.3806 8.728 91.8926 8.712H93.7166V5.592ZM36.6219 21.2H43.3419C45.0699 21.2 46.5259 21.752 47.7099 22.856C48.8779 23.928 49.4619 25.384 49.4619 27.224C49.4619 29.048 48.8779 30.512 47.7099 31.616C46.5259 32.704 45.0699 33.248 43.3419 33.248H41.4219V38H36.6219V21.2ZM41.4219 28.592H43.3419C43.7259 28.592 44.0379 28.472 44.2779 28.232C44.5339 27.976 44.6619 27.64 44.6619 27.224C44.6619 26.808 44.5339 26.48 44.2779 26.24C44.0379 25.984 43.7259 25.856 43.3419 25.856H41.4219V28.592ZM57.1528 27.584L59.5288 21.2H64.5688L59.7208 32.576C58.9048 34.496 57.8408 35.904 56.5288 36.8C55.2168 37.68 53.5288 38.08 51.4648 38V33.536C52.9208 33.648 54.0248 33.368 54.7768 32.696L49.2088 21.2H54.2488L57.1528 27.584Z" fill="white"/>
</svg>
