<svg width="42" height="45" viewBox="0 0 42 45" fill="none" xmlns="http://www.w3.org/2000/svg">
<path d="M40.5744 39.8662C40.8044 39.8662 40.9857 40.0651 40.9619 40.2941C40.7474 42.356 39.0047 43.964 36.8869 43.964H5.97137C7.83948 43.964 9.41437 42.7155 9.90963 41.007C10.1034 40.3376 10.6991 39.8662 11.3965 39.8662H32.787H40.5744Z" fill="#E6B263"/>
<path d="M40.6822 2.1536L40.6791 2.16085C32.6969 0.626374 22.6746 7.05855 16.8578 18.0506C15.0291 21.505 13.8055 25.0496 13.1682 28.4646C13.1672 28.475 13.1651 28.4843 13.1631 28.4936C13.161 28.4853 13.1589 28.477 13.1568 28.4698C12.674 26.7851 12.3922 25.0133 12.3373 23.1825C12.1425 16.6996 14.8385 10.7999 19.2595 6.72492C22.9315 3.33788 27.794 1.20763 33.1797 1.046C35.8042 0.967254 38.3312 1.36201 40.6822 2.1536Z" fill="#FF7124"/>
<path d="M40.679 2.16109C39.3994 4.66123 37.9002 7.15307 36.1833 9.59208C35.0965 11.1359 33.9619 12.6051 32.787 13.9935C30.981 16.132 29.0839 18.082 27.1319 19.8288L21.0945 19.173L22.6787 23.3951C19.5227 25.6414 16.3035 27.3531 13.1682 28.4648C13.8054 25.0498 15.0291 21.5053 16.8578 18.0509C22.6745 7.05879 32.6968 0.626611 40.679 2.16109Z" fill="#8ECAC1"/>
<path d="M32.787 13.9934V39.8661H11.3965C10.6992 39.8661 10.1034 40.3376 9.90967 41.0069C9.41441 42.7154 7.83952 43.964 5.97141 43.964C3.70855 43.964 1.8736 42.129 1.8736 39.8661V8.27926C1.8736 7.42136 2.56986 6.7251 3.42776 6.7251H19.1062H19.2595C14.8385 10.8001 12.1425 16.6997 12.3373 23.1827C12.3922 25.0135 12.674 26.7852 13.1568 28.47C13.1589 28.4772 13.161 28.4855 13.1631 28.4938C13.1651 28.4845 13.1672 28.4751 13.1682 28.4648C16.3035 27.353 19.5227 25.6414 22.6787 23.3951L21.0945 19.1729L27.1319 19.8288C29.0839 18.0819 30.9811 16.1319 32.787 13.9934ZM12.6585 34.8431L13.1631 28.4948C12.7569 30.6841 12.5901 32.8185 12.6585 34.8431Z" fill="#F2D59F"/>
<path d="M13.163 28.4946L12.6585 34.8429C12.5901 32.8183 12.7569 30.6839 13.163 28.4946Z" fill="white"/>
<path d="M5.97145 45C3.14059 45 0.837524 42.6968 0.837524 39.8659C0.837524 39.2938 1.30139 38.8298 1.87364 38.8298C2.44578 38.8298 2.90975 39.2938 2.90975 39.8659C2.90975 41.5542 4.28321 42.9278 5.97145 42.9278C6.54359 42.9278 7.00756 43.3917 7.00756 43.9639C7.00756 44.5361 6.54359 45 5.97145 45Z" fill="#5E2A41"/>
<path d="M36.8869 45H5.97147C5.39923 45 4.93536 44.536 4.93536 43.9639C4.93536 43.3917 5.39933 42.9278 5.97147 42.9278C7.32723 42.9278 8.53751 42.0192 8.91455 40.7184C9.24144 39.589 10.2389 38.8298 11.3964 38.8298H40.5744C40.9775 38.8298 41.3636 39.0016 41.6338 39.3013C41.9033 39.6002 42.034 40.0011 41.9925 40.4009C41.7197 43.0229 39.5249 45 36.8869 45ZM10.0901 42.9278H36.8869C38.209 42.9278 39.3445 42.0954 39.7696 40.9021H11.3964C11.1705 40.9021 10.9729 41.0599 10.9049 41.295C10.731 41.8952 10.4514 42.4452 10.0901 42.9278Z" fill="#5E2A41"/>
<path d="M32.7869 40.9022C32.2148 40.9022 31.7508 40.4382 31.7508 39.8661V13.9934C31.7508 13.4212 32.2148 12.9573 32.7869 12.9573C33.359 12.9573 33.823 13.4212 33.823 13.9934V39.8661C33.823 40.4382 33.3591 40.9022 32.7869 40.9022Z" fill="#5E2A41"/>
<path d="M1.87364 40.9022C1.30139 40.9022 0.837524 40.4383 0.837524 39.8661V8.27924C0.837524 6.85096 1.99952 5.68896 3.4278 5.68896H19.2596C19.8317 5.68896 20.2957 6.15293 20.2957 6.72508C20.2957 7.29722 19.8317 7.76119 19.2596 7.76119H3.4278C3.14215 7.76119 2.90975 7.99359 2.90975 8.27924V39.866C2.90975 40.4383 2.44588 40.9022 1.87364 40.9022Z" fill="#5E2A41"/>
<path d="M13.1631 29.5288C12.6907 29.5288 12.2769 29.2099 12.1593 28.7507C11.6457 26.9544 11.358 25.0943 11.3016 23.2137C11.1052 16.6818 13.7499 10.3943 18.5573 5.96328C22.5421 2.28747 27.7242 0.173289 33.1485 0.0105159C35.8305 -0.0706116 38.468 0.318033 40.989 1.16381C41.4115 1.29467 41.7187 1.68839 41.7187 2.15381C41.7187 2.72595 41.2552 3.18993 40.6831 3.18993C40.5707 3.18993 40.458 3.17159 40.3514 3.13574C38.0572 2.36311 35.6543 2.00855 33.2107 2.0817C28.2854 2.22966 23.5802 4.14905 19.962 7.48668C15.5962 11.5107 13.1947 17.2202 13.3728 23.1514C13.4227 24.8111 13.6703 26.452 14.1096 28.0315C14.1839 28.1927 14.2178 28.3752 14.1994 28.5648C14.1933 28.6274 14.1835 28.6766 14.1757 28.7125C14.0733 29.1817 13.6618 29.5201 13.1817 29.5287C13.1756 29.5288 13.1693 29.5288 13.1631 29.5288ZM13.1514 28.4911L12.1567 28.7404L12.1595 28.7507L13.1515 28.4911H13.1514Z" fill="#5E2A41"/>
<path d="M12.6579 35.879C12.1019 35.879 11.6419 35.4378 11.6231 34.8779C11.5518 32.7663 11.7271 30.555 12.1444 28.3055C12.2488 27.7428 12.7892 27.3715 13.3521 27.4758C13.9147 27.5801 14.2863 28.1209 14.1819 28.6835C13.7919 30.7856 13.6277 32.8461 13.6941 34.8077C13.7134 35.3797 13.2654 35.8589 12.6936 35.8783C12.6817 35.8788 12.6696 35.879 12.6579 35.879Z" fill="#5E2A41"/>
<path d="M13.1684 29.5007C12.9252 29.5007 12.6856 29.4151 12.4951 29.2523C12.2134 29.0116 12.0818 28.6388 12.1498 28.2746C12.8275 24.642 14.1033 21.0391 15.9422 17.566C18.8119 12.1429 22.8762 7.51796 27.386 4.54339C31.9229 1.5509 36.7136 0.34362 40.8747 1.14339C41.1948 1.20494 41.4673 1.41351 41.6103 1.70662C41.7533 1.99953 41.75 2.3428 41.6015 2.63291C40.2801 5.215 38.7422 7.75699 37.0307 10.1883C35.9342 11.7457 34.7726 13.2512 33.5781 14.6627C31.771 16.8026 29.8344 18.8008 27.823 20.6009C27.6042 20.7968 27.313 20.8906 27.0201 20.8588L22.656 20.3848L23.6489 23.0311C23.814 23.471 23.6625 23.9667 23.2797 24.2392C20.0478 26.5394 16.7624 28.2897 13.5146 29.4412C13.4016 29.4811 13.2846 29.5007 13.1684 29.5007ZM38.2463 2.96944C31.0312 2.96944 22.7401 9.15004 17.7737 18.5351C16.3472 21.2293 15.2795 24.002 14.5886 26.8003C16.8625 25.837 19.1532 24.5661 21.4263 23.0062L20.1245 19.5366C19.9981 19.1999 20.0555 18.8216 20.2761 18.5374C20.4965 18.2532 20.8482 18.1041 21.2064 18.1426L26.7822 18.7483C28.6 17.0932 30.3522 15.2705 31.9953 13.3245C33.1511 11.9588 34.275 10.5026 35.3362 8.99525C36.702 7.05503 37.9531 5.04259 39.0664 2.99648C38.7947 2.97835 38.5213 2.96944 38.2463 2.96944Z" fill="#5E2A41"/>
</svg>
