<svg width="18" height="18" viewBox="0 0 18 18" fill="none" xmlns="http://www.w3.org/2000/svg">
<path d="M13.0166 17.4729C14.5547 17.4729 15.6006 17.0334 16.5498 16.0051C16.6113 15.9348 16.6729 15.8557 16.7344 15.7854C17.2529 15.2053 17.5078 14.5989 17.5078 14.0364C17.5078 13.3772 17.1562 12.7795 16.374 12.2434L13.7549 10.4153C12.9287 9.84397 11.9707 9.80002 11.2324 10.5383L10.582 11.1887C10.3535 11.4172 10.1338 11.4348 9.87012 11.2502C9.39551 10.9338 8.49902 10.1428 7.88379 9.52756C7.25977 8.90354 6.62695 8.20041 6.28418 7.66428C6.09961 7.39182 6.11719 7.18088 6.3457 6.95237L6.99609 6.30198C7.73438 5.5637 7.69043 4.60569 7.11035 3.77952L5.24707 1.11643C4.72852 0.360571 4.10449 0.00900883 3.44531 0.000219767C2.88281 -0.0085693 2.28516 0.246314 1.70508 0.756079C1.63477 0.817603 1.56445 0.879126 1.49414 0.940649C0.448242 1.89866 0 2.92698 0 4.52659C0 7.11936 1.50293 10.178 4.42969 13.0871C7.33887 15.9787 10.3623 17.4729 13.0166 17.4729ZM13.0166 16.0051C10.7754 16.0403 7.98926 14.4494 5.5459 12.0237C3.08496 9.59788 1.4502 6.70627 1.48535 4.46506C1.50293 3.52463 1.83691 2.69846 2.49609 2.11838C2.56641 2.06565 2.61914 2.0217 2.68945 1.96897C2.93555 1.75803 3.19922 1.64377 3.44531 1.64377C3.7002 1.64377 3.92871 1.74924 4.10449 2.01292L5.74805 4.48264C5.95898 4.78147 5.96777 5.12424 5.66016 5.42307L4.95703 6.11741C4.28906 6.7678 4.35059 7.53245 4.77246 8.1301C5.24707 8.78928 6.13477 9.80002 6.88184 10.5383C7.68164 11.3293 8.77148 12.3049 9.4043 12.7619C10.002 13.1838 10.7666 13.2453 11.417 12.5774L12.1113 11.8742C12.4014 11.5666 12.7441 11.5754 13.0518 11.7776L15.4775 13.3948C15.75 13.5705 15.8467 13.7903 15.8467 14.0451C15.8467 14.2912 15.7324 14.5549 15.5215 14.8098C15.4688 14.8713 15.4248 14.924 15.3721 14.9944C14.792 15.6623 13.9658 15.9963 13.0166 16.0051Z" fill="#1C1C1E"/>
</svg>
