<svg width="46" height="44" viewBox="0 0 46 44" fill="none" xmlns="http://www.w3.org/2000/svg">
<path d="M44.0998 23.5308V43.059H35.4686V23.5299H44.0988L44.0998 23.5308Z" fill="#F2D59F"/>
<path d="M39.2285 17.0563L44.0988 23.5299H35.4686V17.0563H39.2285Z" fill="#8ECAC1"/>
<path d="M35.4686 23.5299V43.059H26.8364V33.612H22.5203H18.2043V43.059H9.57214V23.5299V17.0563L22.5203 10.5826L35.4686 17.0563V23.5299ZM24.645 18.8074C24.645 17.634 23.6937 16.6827 22.5203 16.6827C21.347 16.6827 20.3957 17.634 20.3957 18.8074C20.3957 19.9807 21.347 20.932 22.5203 20.932C23.6937 20.932 24.645 19.9807 24.645 18.8074Z" fill="#F2D59F"/>
<path d="M30.6802 0.940918L27.7567 3.41746L30.6802 5.894H22.5204V0.940918H30.6802Z" fill="#FF7124"/>
<path d="M26.8365 33.6121H22.5204V43.059H26.8365V33.6121Z" fill="#FF7124"/>
<path d="M22.5204 20.932C23.6938 20.932 24.645 19.9808 24.645 18.8074C24.645 17.634 23.6938 16.6827 22.5204 16.6827C21.347 16.6827 20.3958 17.634 20.3958 18.8074C20.3958 19.9808 21.347 20.932 22.5204 20.932Z" fill="#E6B263"/>
<path d="M22.5204 33.6121H18.2043V43.059H22.5204V33.6121Z" fill="#FF7124"/>
<path d="M9.57218 23.5299V43.059H0.940979V23.5308L0.94192 23.5299H9.57218Z" fill="#F2D59F"/>
<path d="M9.57221 17.0563V23.5299H0.941956L5.81223 17.0563H9.57221Z" fill="#8ECAC1"/>
<path d="M35.4685 44H26.8364C26.3168 44 25.8954 43.5788 25.8954 43.0591C25.8954 42.5394 26.3168 42.1182 26.8364 42.1182H35.4685C35.9881 42.1182 36.4095 42.5394 36.4095 43.0591C36.4095 43.5788 35.9882 44 35.4685 44Z" fill="#5E2A41"/>
<path d="M18.2042 44H9.5721C9.05252 44 8.63116 43.5788 8.63116 43.0591C8.63116 42.5394 9.05252 42.1182 9.5721 42.1182H18.2042C18.7238 42.1182 19.1452 42.5394 19.1452 43.0591C19.1452 43.5788 18.7238 44 18.2042 44Z" fill="#5E2A41"/>
<path d="M9.57204 44H0.940935C0.421257 44 0 43.5787 0 43.0591V23.5309C0 23.0112 0.421257 22.59 0.940935 22.59C1.46052 22.59 1.88187 23.0112 1.88187 23.5309V42.1181H9.57204C10.0916 42.1181 10.513 42.5394 10.513 43.0591C10.513 43.5787 10.0917 44 9.57204 44Z" fill="#5E2A41"/>
<path d="M9.57207 24.4709H0.941912C0.422327 24.4709 0.000976562 24.0496 0.000976562 23.5299C0.000976562 23.0102 0.422327 22.589 0.941912 22.589H9.57217C10.0918 22.589 10.5131 23.0102 10.5131 23.5299C10.513 24.0495 10.0918 24.4709 9.57207 24.4709Z" fill="#5E2A41"/>
<path d="M44.0988 24.4709H35.4685C34.9489 24.4709 34.5276 24.0496 34.5276 23.5299C34.5276 23.0102 34.9489 22.589 35.4685 22.589H44.0988C44.6184 22.589 45.0397 23.0102 45.0397 23.5299C45.0397 24.0495 44.6184 24.4709 44.0988 24.4709Z" fill="#5E2A41"/>
<path d="M44.0997 44H35.4685C34.9489 44 34.5276 43.5787 34.5276 43.0591C34.5276 42.5394 34.9489 42.1181 35.4685 42.1181H43.1587V23.5309C43.1587 23.0112 43.58 22.59 44.0996 22.59C44.6192 22.59 45.0406 23.0112 45.0406 23.5309V43.0591C45.0407 43.5787 44.6193 44 44.0997 44Z" fill="#5E2A41"/>
<path d="M26.8364 43.9059H18.2043C17.7365 43.9059 17.3574 43.5268 17.3574 43.0591V33.6121C17.3574 33.1444 17.7365 32.7653 18.2043 32.7653H26.8364C27.3041 32.7653 27.6832 33.1444 27.6832 33.6121V43.0591C27.6832 43.5268 27.3041 43.9059 26.8364 43.9059ZM19.0511 42.2122H25.9896V34.4589H19.0511V42.2122Z" fill="#5E2A41"/>
<path d="M5.25697 39.429C4.73739 39.429 4.31604 39.0077 4.31604 38.488V36.4208C4.31604 35.9011 4.73739 35.4799 5.25697 35.4799C5.77656 35.4799 6.19791 35.9011 6.19791 36.4208V38.488C6.19791 39.0077 5.77665 39.429 5.25697 39.429Z" fill="#5E2A41"/>
<path d="M39.7836 39.429C39.2641 39.429 38.8427 39.0077 38.8427 38.488V36.4208C38.8427 35.9011 39.2641 35.4799 39.7836 35.4799C40.3032 35.4799 40.7246 35.9011 40.7246 36.4208V38.488C40.7246 39.0077 40.3032 39.429 39.7836 39.429Z" fill="#5E2A41"/>
<path d="M5.25697 31.9504C4.73739 31.9504 4.31604 31.5292 4.31604 31.0095V28.9423C4.31604 28.4226 4.73739 28.0013 5.25697 28.0013C5.77656 28.0013 6.19791 28.4226 6.19791 28.9423V31.0095C6.19791 31.5292 5.77665 31.9504 5.25697 31.9504Z" fill="#5E2A41"/>
<path d="M39.7836 31.9504C39.2641 31.9504 38.8427 31.5292 38.8427 31.0095V28.9423C38.8427 28.4226 39.2641 28.0013 39.7836 28.0013C40.3032 28.0013 40.7246 28.4226 40.7246 28.9423V31.0095C40.7246 31.5292 40.3032 31.9504 39.7836 31.9504Z" fill="#5E2A41"/>
<path d="M13.8882 36.6193C13.3686 36.6193 12.9473 36.198 12.9473 35.6784V33.6121C12.9473 33.0924 13.3686 32.6711 13.8882 32.6711C14.4078 32.6711 14.8291 33.0924 14.8291 33.6121V35.6784C14.8291 36.198 14.4078 36.6193 13.8882 36.6193Z" fill="#5E2A41"/>
<path d="M31.1525 36.6193C30.6329 36.6193 30.2115 36.198 30.2115 35.6784V33.6121C30.2115 33.0924 30.6329 32.6711 31.1525 32.6711C31.6722 32.6711 32.0934 33.0924 32.0934 33.6121V35.6784C32.0934 36.198 31.6722 36.6193 31.1525 36.6193Z" fill="#5E2A41"/>
<path d="M13.8882 29.1408C13.3686 29.1408 12.9473 28.7195 12.9473 28.1999V26.1336C12.9473 25.6139 13.3686 25.1926 13.8882 25.1926C14.4078 25.1926 14.8291 25.6139 14.8291 26.1336V28.1999C14.8291 28.7195 14.4078 29.1408 13.8882 29.1408Z" fill="#5E2A41"/>
<path d="M31.1525 29.1408C30.6329 29.1408 30.2115 28.7195 30.2115 28.1999V26.1336C30.2115 25.6139 30.6329 25.1926 31.1525 25.1926C31.6722 25.1926 32.0934 25.6139 32.0934 26.1336V28.1999C32.0934 28.7195 31.6722 29.1408 31.1525 29.1408Z" fill="#5E2A41"/>
<path d="M22.5203 29.1408C22.0008 29.1408 21.5794 28.7195 21.5794 28.1999V26.1336C21.5794 25.6139 22.0008 25.1926 22.5203 25.1926C23.04 25.1926 23.4613 25.6139 23.4613 26.1336V28.1999C23.4613 28.7195 23.0399 29.1408 22.5203 29.1408Z" fill="#5E2A41"/>
<path d="M44.0992 24.4715C43.8508 24.4715 43.6032 24.3738 43.4184 24.1797C43.3933 24.1534 43.3688 24.1246 43.3469 24.0955L38.759 17.9972H35.4685C34.9489 17.9972 34.5276 17.576 34.5276 17.0563C34.5276 16.5366 34.9489 16.1154 35.4685 16.1154H39.2285C39.5242 16.1154 39.8027 16.2543 39.9804 16.4906L44.8435 22.9546C45.1354 23.3315 45.1007 23.8759 44.7481 24.2117C44.566 24.3853 44.3322 24.4715 44.0992 24.4715Z" fill="#5E2A41"/>
<path d="M0.941047 24.4712C0.707883 24.4712 0.474531 24.3852 0.292554 24.2118C-0.0620839 23.8741 -0.0957694 23.3261 0.201378 22.9493L5.06027 16.4907C5.23811 16.2545 5.51653 16.1155 5.81217 16.1155H9.57215C10.0917 16.1155 10.5131 16.5367 10.5131 17.0564C10.5131 17.5761 10.0917 17.9973 9.57215 17.9973H6.2817L1.69379 24.0956C1.67197 24.1247 1.64835 24.1525 1.62322 24.1789C1.43814 24.3731 1.18974 24.4712 0.941047 24.4712Z" fill="#5E2A41"/>
<path d="M22.5204 43.9059C22.0526 43.9059 21.6735 43.5268 21.6735 43.0591V33.6121C21.6735 33.1444 22.0526 32.7653 22.5204 32.7653C22.9881 32.7653 23.3672 33.1444 23.3672 33.6121V43.0591C23.3672 43.5268 22.9881 43.9059 22.5204 43.9059Z" fill="#5E2A41"/>
<path d="M35.4685 44C34.9489 44 34.5276 43.5788 34.5276 43.0591V17.6378L22.5203 11.6347L10.513 17.6378V43.0591C10.513 43.5788 10.0917 44 9.5721 44C9.05252 44 8.63116 43.5788 8.63116 43.0591V17.0563C8.63116 16.6999 8.83262 16.3741 9.15131 16.2148L22.0995 9.74114C22.3643 9.60875 22.6762 9.60875 22.941 9.74114L35.8892 16.2148C36.208 16.3742 36.4093 16.7 36.4093 17.0563V43.0591C36.4094 43.5788 35.9882 44 35.4685 44Z" fill="#5E2A41"/>
<path d="M22.5203 11.5237C22.0008 11.5237 21.5794 11.1024 21.5794 10.5827V5.89406C21.5794 5.37438 22.0008 4.95312 22.5203 4.95312C23.04 4.95312 23.4613 5.37438 23.4613 5.89406V10.5827C23.4613 11.1024 23.0399 11.5237 22.5203 11.5237Z" fill="#5E2A41"/>
<path d="M30.6801 6.83495H22.5203C22.0008 6.83495 21.5794 6.4137 21.5794 5.89402V0.940935C21.5794 0.421257 22.0008 0 22.5203 0H30.6801C31.0749 0 31.4276 0.246431 31.5636 0.617065C31.6994 0.9877 31.5895 1.40378 31.2883 1.65896L29.2124 3.41757L31.2883 5.17618C31.5895 5.43136 31.6994 5.84744 31.5636 6.21807C31.4276 6.58852 31.0749 6.83495 30.6801 6.83495ZM23.4613 4.95308H28.1136L27.1484 4.13541C26.9374 3.95663 26.8157 3.69411 26.8157 3.41748C26.8157 3.14084 26.9374 2.87832 27.1484 2.69954L28.1136 1.88187H23.4613V4.95308Z" fill="#5E2A41"/>
<path d="M22.5203 21.7789C20.8819 21.7789 19.5488 20.4459 19.5488 18.8074C19.5488 17.169 20.8819 15.8359 22.5203 15.8359C24.1588 15.8359 25.4918 17.169 25.4918 18.8074C25.4918 20.4459 24.1588 21.7789 22.5203 21.7789ZM22.5203 17.5296C21.8157 17.5296 21.2425 18.1028 21.2425 18.8074C21.2425 19.512 21.8157 20.0852 22.5203 20.0852C23.2249 20.0852 23.7981 19.512 23.7981 18.8074C23.7981 18.1028 23.2249 17.5296 22.5203 17.5296Z" fill="#5E2A41"/>
</svg>
