<svg width="29" height="44" viewBox="0 0 29 44" fill="none" xmlns="http://www.w3.org/2000/svg">
<path d="M27.2256 14.8148C27.2256 18.4398 25.8829 22.3271 23.695 25.3999C21.8287 28.0192 20.6936 31.0876 20.6936 34.3042V35.0638H7.62974V34.3042C7.62974 31.0876 6.49461 28.0192 4.62835 25.3999C2.44042 22.3271 1.09781 18.4398 1.09781 14.8148C1.09781 7.2389 6.94691 1.09778 14.1617 1.09778C21.3765 1.09778 27.2256 7.2389 27.2256 14.8148ZM13.0891 27.1476L19.1018 17.746H14.3714L15.2342 11.2799L9.22156 20.6826H13.952L13.0891 27.1476Z" fill="#FF7124"/>
<path d="M20.6936 38.983V41.2555C20.6936 42.1655 19.9559 42.9022 19.0469 42.9022H9.27645C8.36747 42.9022 7.62975 42.1655 7.62975 41.2555V35.0638H20.6936V38.983Z" fill="#F2D59F"/>
<path d="M19.1018 17.746L13.0891 27.1476L13.952 20.6826H9.22156L15.2342 11.2799L14.3714 17.746H19.1018Z" fill="#8ECAC1"/>
<path d="M4.94012 15.9126C4.3338 15.9126 3.84232 15.4212 3.84232 14.8148C3.84232 8.76462 8.47154 3.84229 14.1617 3.84229C14.7679 3.84229 15.2595 4.33377 15.2595 4.94009C15.2595 5.54641 14.7679 6.03789 14.1617 6.03789C9.68219 6.03789 6.03792 9.97517 6.03792 14.8148C6.03792 15.4212 5.54644 15.9126 4.94012 15.9126Z" fill="#5E2A41"/>
<path d="M13.0889 28.1357C12.9756 28.1357 12.8609 28.1162 12.7496 28.0755C12.3145 27.9163 12.0485 27.4761 12.1098 27.017L12.8233 21.6707H9.22155C8.86048 21.6707 8.52829 21.4738 8.35494 21.1571C8.18149 20.8405 8.19466 20.4545 8.38908 20.1503L14.4018 10.7476C14.6513 10.3574 15.139 10.193 15.5737 10.3521C16.0087 10.5113 16.2748 10.9514 16.2135 11.4106L15.4999 16.7579H19.1018C19.4627 16.7579 19.7951 16.9548 19.9685 17.2714C20.1418 17.588 20.1287 17.974 19.9341 18.2782L13.9215 27.6798C13.7357 27.9704 13.4183 28.1357 13.0889 28.1357ZM11.0261 19.6946H13.952C14.2369 19.6946 14.5078 19.8176 14.6953 20.0319C14.8829 20.2462 14.9689 20.531 14.9312 20.8134L14.658 22.8606L17.297 18.7342H14.3713C14.0865 18.7342 13.8155 18.6112 13.6279 18.3969C13.4403 18.1826 13.3543 17.8977 13.392 17.6154L13.6652 15.5674L11.0261 19.6946Z" fill="#5E2A41"/>
<path d="M20.6936 36.1617C20.0873 36.1617 19.5958 35.6702 19.5958 35.0639V34.3042C19.5958 31.0051 20.7042 27.7058 22.8008 24.7628C24.884 21.8373 26.1277 18.1183 26.1277 14.8148C26.1277 7.85655 20.7597 2.19561 14.1617 2.19561C7.56354 2.19561 2.19561 7.85655 2.19561 14.8149C2.19561 18.1184 3.43942 21.8374 5.52261 24.7632C7.6192 27.7058 8.72754 31.0051 8.72754 34.3042V35.0639C8.72754 35.6702 8.23606 36.1617 7.62974 36.1617C7.02342 36.1617 6.53194 35.6702 6.53194 35.0639V34.3042C6.53194 31.4645 5.56455 28.6057 3.73429 26.037C1.36095 22.7039 0 18.6137 0 14.8149C0 6.64589 6.35288 0 14.1617 0C21.9705 0 28.3234 6.64589 28.3234 14.8149C28.3234 18.6137 26.9623 22.7038 24.5893 26.0367C22.7588 28.6058 21.7914 31.4645 21.7914 34.3043V35.064C21.7914 35.6702 21.2998 36.1617 20.6936 36.1617Z" fill="#5E2A41"/>
<path d="M19.0469 44H9.27645C7.76312 44 6.53194 42.7688 6.53194 41.2555V35.0639C6.53194 34.4576 7.02342 33.9661 7.62974 33.9661H20.6936C21.2998 33.9661 21.7914 34.4576 21.7914 35.0639V41.2555C21.7914 42.7688 20.5602 44 19.0469 44ZM8.72755 36.1617V41.2555C8.72755 41.5582 8.97378 41.8044 9.27645 41.8044H19.0469C19.3496 41.8044 19.5958 41.5582 19.5958 41.2555V36.1617H8.72755Z" fill="#5E2A41"/>
<path d="M20.6936 40.0809H14.1617C13.5554 40.0809 13.0639 39.5894 13.0639 38.9831C13.0639 38.3767 13.5554 37.8853 14.1617 37.8853H20.6936C21.2998 37.8853 21.7914 38.3767 21.7914 38.9831C21.7914 39.5894 21.2998 40.0809 20.6936 40.0809Z" fill="#5E2A41"/>
</svg>
