<svg width="30" height="44" viewBox="0 0 30 44" fill="none" xmlns="http://www.w3.org/2000/svg">
<path d="M28.6895 14.8182C28.6895 17.9636 27.643 20.8652 25.8771 23.1918C26.0346 22.4232 26.1172 21.6271 26.1172 20.8111C26.1172 17.0613 24.3751 13.7289 21.6756 11.6168C19.3092 13.8817 16.1011 15.2717 12.5667 15.2717C11.077 15.2717 9.64421 15.0241 8.30823 14.5687C6.75401 14.0382 5.04513 14.7746 4.41509 16.2918C3.83914 17.6799 3.52128 19.2076 3.52128 20.8111C3.52128 21.6271 3.60383 22.4223 3.76134 23.1909C1.99553 20.8643 0.948944 17.9636 0.948944 14.8182C0.948944 13.0524 1.27914 11.3634 1.88072 9.80922C3.89038 4.62565 8.92498 0.948853 14.8192 0.948853C18.979 0.948853 22.7108 2.77919 25.2528 5.67982C27.3934 8.12026 28.6895 11.3179 28.6895 14.8182ZM6.88211 7.86882L14.8192 4.26983C11.781 4.26983 8.88798 5.58114 6.88211 7.86882Z" fill="#FF7124"/>
<path d="M16.7037 22.7467V24.2326H22.9737V19.2474H16.7037V22.7467ZM12.9348 22.7467V19.2474H6.66481V24.2326H12.9348V22.7467ZM26.1172 20.8111C26.1172 21.6271 26.0346 22.4232 25.8771 23.1917L25.8582 23.2752C24.7898 27.5232 22.4603 31.9041 19.4847 34.298C18.0567 35.448 16.4797 36.1397 14.8211 36.1397C13.1407 36.1397 11.5448 35.43 10.1015 34.2525C7.14588 31.8433 4.83448 27.4777 3.77651 23.2468L3.76133 23.1908C3.60382 22.4222 3.52127 21.6271 3.52127 20.8111C3.52127 19.2075 3.83914 17.6799 4.41509 16.2917C5.04512 14.7745 6.754 14.0382 8.30822 14.5686C9.6442 15.024 11.077 15.2717 12.5667 15.2717C16.1011 15.2717 19.3092 13.8816 21.6756 11.6167C24.3751 13.7288 26.1172 17.0612 26.1172 20.8111Z" fill="#F2D59F"/>
<path d="M24.2394 41.7749L24.2375 41.8176L22.9879 41.7749C17.6667 43.4667 11.9528 43.4667 6.63162 41.7749L5.38198 41.8176L5.38008 41.7749C7.70476 41.2749 9.67078 38.3306 10.1006 34.3397L10.1016 34.2524C11.5448 35.43 13.1407 36.1397 14.8211 36.1397C16.4797 36.1397 18.0567 35.448 19.4847 34.298L19.5189 34.3397C19.9478 38.3306 21.9147 41.2749 24.2394 41.7749Z" fill="#F2D59F"/>
<path d="M22.9737 19.2474V24.2327H16.7037V22.7468V19.2474H22.9737Z" fill="#8ECAC1"/>
<path d="M14.8192 4.26978L6.8821 7.86876C8.88797 5.58109 11.781 4.26978 14.8192 4.26978Z" fill="white"/>
<path d="M12.9348 22.7468V24.2327H6.66481V19.2474H12.9348V22.7468Z" fill="#8ECAC1"/>
<path d="M14.8097 44C11.9615 44 9.11323 43.5597 6.34411 42.6794C5.84473 42.5205 5.56861 41.987 5.72735 41.4875C5.8861 40.9881 6.41944 40.7117 6.91901 40.8708C12.0811 42.512 17.5382 42.512 22.7003 40.8708C23.1999 40.712 23.7333 40.9881 23.892 41.4875C24.0508 41.987 23.7747 42.5205 23.2753 42.6794C20.5063 43.5597 17.658 44 14.8097 44Z" fill="#5E2A41"/>
<path d="M3.74085 42.8217C3.23141 42.8217 2.81031 42.4176 2.79314 41.9046C2.77549 41.3809 3.18587 40.942 3.70963 40.9246L6.59926 40.8268C7.12122 40.8116 7.56206 41.219 7.57999 41.7427C7.59793 42.2664 7.18783 42.7055 6.66416 42.7234L3.77339 42.8211C3.76248 42.8215 3.75157 42.8217 3.74085 42.8217Z" fill="#5E2A41"/>
<path d="M25.8787 42.8218C25.8679 42.8218 25.8571 42.8216 25.8463 42.8212L22.9555 42.7235C22.4318 42.7056 22.0218 42.2665 22.0397 41.7427C22.0576 41.2189 22.4961 40.8082 23.0204 40.8269L25.9101 40.9246C26.4338 40.9422 26.8441 41.381 26.8266 41.9047C26.8092 42.4177 26.388 42.8218 25.8787 42.8218Z" fill="#5E2A41"/>
<path d="M5.37922 42.724C4.9417 42.724 4.54831 42.4196 4.45248 41.9746C4.34222 41.4623 4.66825 40.9575 5.18053 40.8474C6.0696 40.6561 6.94776 39.9478 7.65323 38.8526C8.44429 37.6248 8.96436 36.0291 9.15716 34.2383C9.21324 33.7172 9.68159 33.3408 10.2021 33.3964C10.7231 33.4525 11.1 33.9204 11.044 34.4414C10.5767 38.7802 8.38072 42.1002 5.57962 42.7027C5.51244 42.7171 5.44526 42.724 5.37922 42.724Z" fill="#5E2A41"/>
<path d="M24.2404 42.7241C24.1742 42.7241 24.1072 42.7172 24.0399 42.7027C21.2377 42.0998 19.0417 38.7799 18.5755 34.4413C18.5195 33.9203 18.8965 33.4525 19.4175 33.3965C19.9387 33.3412 20.4063 33.7176 20.4622 34.2385C20.6547 36.0291 21.1745 37.6246 21.9658 38.8527C22.6714 39.9478 23.5497 40.6563 24.4389 40.8475C24.9512 40.9576 25.2772 41.4623 25.1669 41.9747C25.0713 42.4197 24.6779 42.7241 24.2404 42.7241Z" fill="#5E2A41"/>
<path d="M14.8211 37.0887C13 37.0887 11.2103 36.3819 9.50169 34.9877C6.58322 32.6089 4.0366 28.1981 2.85604 23.4769C2.72889 22.9686 3.03803 22.4534 3.54633 22.3262C4.05434 22.1989 4.56985 22.5081 4.697 23.0165C5.78315 27.3602 8.08373 31.3838 10.7009 33.517C12.0625 34.6277 13.4484 35.1909 14.821 35.1909C16.1761 35.1909 17.5449 34.6419 18.8895 33.559C21.5217 31.4414 23.8392 27.4123 24.9379 23.0439C25.0657 22.5358 25.5812 22.2273 26.0895 22.3551C26.5977 22.483 26.9061 22.9985 26.7783 23.5068C25.584 28.2557 23.017 32.6739 20.0795 35.0373C18.3895 36.3984 16.6202 37.0887 14.8211 37.0887Z" fill="#5E2A41"/>
<path d="M16.7037 23.6957C16.1796 23.6957 15.7548 23.2708 15.7548 22.7468C15.7548 22.231 15.3351 21.8113 14.8192 21.8113C14.3034 21.8113 13.8837 22.231 13.8837 22.7468C13.8837 23.2708 13.4589 23.6957 12.9348 23.6957C12.4108 23.6957 11.986 23.2708 11.986 22.7468C11.986 21.1846 13.257 19.9136 14.8192 19.9136C16.3815 19.9136 17.6525 21.1846 17.6525 22.7468C17.6525 23.2709 17.2277 23.6957 16.7037 23.6957Z" fill="#5E2A41"/>
<path d="M12.9348 25.1817H6.66482C6.14077 25.1817 5.71597 24.7568 5.71597 24.2328V19.2476C5.71597 18.7235 6.14077 18.2987 6.66482 18.2987H12.9348C13.4589 18.2987 13.8837 18.7235 13.8837 19.2476V24.2328C13.8837 24.7568 13.4589 25.1817 12.9348 25.1817ZM7.61367 23.284H11.986V20.1964H7.61367V23.284Z" fill="#5E2A41"/>
<path d="M22.9737 25.1817H16.7037C16.1796 25.1817 15.7548 24.7568 15.7548 24.2328V19.2476C15.7548 18.7235 16.1796 18.2987 16.7037 18.2987H22.9737C23.4977 18.2987 23.9225 18.7235 23.9225 19.2476V24.2328C23.9225 24.7568 23.4977 25.1817 22.9737 25.1817ZM17.6525 23.284H22.0248V20.1964H17.6525V23.284Z" fill="#5E2A41"/>
<path d="M25.8768 24.1407C25.7449 24.1407 25.6116 24.1132 25.4854 24.0559C25.0819 23.873 24.8587 23.4352 24.9477 23.0013C25.0941 22.2868 25.1684 21.5498 25.1684 20.8111C25.1684 17.74 23.9124 14.8901 21.6964 12.875C19.1472 15.0386 15.9374 16.2206 12.5667 16.2206C11.0052 16.2206 9.46943 15.967 8.00204 15.4667C6.91304 15.0954 5.72252 15.6175 5.29136 16.6556C4.74643 17.9689 4.47013 19.3671 4.47013 20.8111C4.47013 21.5492 4.54442 22.2858 4.69083 23.0003C4.77983 23.4342 4.55657 23.8721 4.15312 24.055C3.74967 24.2382 3.27334 24.1174 3.00548 23.7644C1.03928 21.1739 0 18.0802 0 14.8181C0 12.9742 0.335039 11.1738 0.995818 9.46668C2.06479 6.70932 3.91629 4.35484 6.35037 2.65688C8.84234 0.918772 11.7708 0 14.8192 0C19.0884 0 23.1514 1.84229 25.9664 5.05453C28.3342 7.754 29.6384 11.2216 29.6384 14.8182C29.6384 18.081 28.5991 21.1749 26.6329 23.7655C26.4489 24.0078 26.1664 24.1407 25.8768 24.1407ZM14.8192 1.8977C12.1609 1.8977 9.60796 2.69844 7.43605 4.21337C5.31242 5.69471 3.69729 7.74831 2.76533 10.1522C2.18966 11.6395 1.8977 13.2095 1.8977 14.8182C1.8977 16.3475 2.15958 17.8343 2.66807 19.233C2.80746 18.0952 3.09866 16.9887 3.53864 15.9282C4.35238 13.9684 6.5818 12.977 8.61461 13.6707C9.88408 14.1034 11.2138 14.3229 12.5666 14.3229C15.7324 14.3229 18.7344 13.1184 21.0194 10.9313C21.3601 10.6052 21.8887 10.5789 22.2602 10.8696C24.9005 12.9353 26.5673 15.923 26.9706 19.233C27.4789 17.8343 27.7407 16.3476 27.7407 14.8182C27.7407 11.6821 26.6038 8.65902 24.5395 6.30549C22.0846 3.5042 18.5418 1.8977 14.8192 1.8977Z" fill="#5E2A41"/>
<path d="M6.88182 8.81771C6.65969 8.81771 6.43672 8.74019 6.25662 8.5823C5.86257 8.23682 5.82328 7.63734 6.16876 7.24338C8.35434 4.75056 11.5074 3.32092 14.8192 3.32092C15.3433 3.32092 15.7681 3.74582 15.7681 4.26977C15.7681 4.79373 15.3433 5.21862 14.8192 5.21862C12.0538 5.21862 9.42085 6.41256 7.59555 8.49434C7.40805 8.70831 7.14551 8.81771 6.88182 8.81771Z" fill="#5E2A41"/>
</svg>
